<?xml version="1.0" standalone="no"?>
<!DOCTYPE svg PUBLIC "-//W3C//DTD SVG 20010904//EN"
 "http://www.w3.org/TR/2001/REC-SVG-20010904/DTD/svg10.dtd">
<svg version="1.0" xmlns="http://www.w3.org/2000/svg"
 width="32.000000pt" height="32.000000pt" viewBox="0 0 32.000000 32.000000"
 preserveAspectRatio="xMidYMid meet">

<g transform="translate(0.000000,32.000000) scale(0.100000,-0.100000)"
fill="#000000" stroke="none">
<path d="M70 291 c-19 -9 -41 -28 -48 -43 -12 -26 -7 -78 8 -78 17 0 31 30 25
51 -8 25 8 39 46 39 35 0 59 27 33 36 -11 4 -21 8 -24 10 -3 1 -21 -5 -40 -15z"/>
<path d="M185 295 c-16 -7 -61 -45 -99 -84 -62 -62 -70 -75 -69 -106 1 -36 28
-79 44 -70 4 3 10 1 14 -5 8 -12 62 -13 69 -1 4 5 18 5 35 -2 42 -16 91 1 114
41 16 27 17 37 7 66 -8 25 -8 41 0 55 13 26 4 64 -21 87 -10 9 -19 14 -19 10
0 -3 -10 0 -22 8 -20 12 -28 13 -53 1z m85 -58 c0 -10 -23 -43 -52 -73 -48
-51 -50 -56 -35 -71 15 -16 18 -15 42 7 22 21 28 22 35 10 18 -29 11 -46 -21
-48 -24 -2 -40 7 -82 47 l-52 50 27 28 27 27 26 -24 c24 -23 26 -23 43 -6 16
16 16 18 -10 41 -32 27 -27 36 19 33 25 -2 33 -7 33 -21z m-157 -170 c-3 -5
-16 -7 -29 -4 -13 2 -25 -1 -28 -7 -2 -6 -5 -1 -5 12 -1 13 4 32 9 43 10 18
12 18 34 -8 14 -15 22 -32 19 -36z"/>
</g>
</svg>
